<svg xmlns="http://www.w3.org/2000/svg" width="216" height="216"><rect x="0" y="0" width="100%" height="100%" fill="rgb(134,73,103)"></rect><circle cx="18" cy="18" r="15" fill="none" stroke="#ddd" opacity="0.07200000000000001" stroke-width="6px"></circle><circle cx="18" cy="18" r="7.5" fill="#222" fill-opacity="0.08066666666666666"></circle><circle cx="54" cy="18" r="15" fill="none" stroke="#222" opacity="0.15" stroke-width="6px"></circle><circle cx="54" cy="18" r="7.5" fill="#222" fill-opacity="0.06333333333333334"></circle><circle cx="90" cy="18" r="15" fill="none" stroke="#ddd" opacity="0.03733333333333333" stroke-width="6px"></circle><circle cx="90" cy="18" r="7.5" fill="#ddd" fill-opacity="0.02"></circle><circle cx="126" cy="18" r="15" fill="none" stroke="#ddd" opacity="0.10666666666666667" stroke-width="6px"></circle><circle cx="126" cy="18" r="7.5" fill="#222" fill-opacity="0.06333333333333334"></circle><circle cx="162" cy="18" r="15" fill="none" stroke="#222" opacity="0.11533333333333334" stroke-width="6px"></circle><circle cx="162" cy="18" r="7.5" fill="#222" fill-opacity="0.06333333333333334"></circle><circle cx="198" cy="18" r="15" fill="none" stroke="#222" opacity="0.098" stroke-width="6px"></circle><circle cx="198" cy="18" r="7.5" fill="#ddd" fill-opacity="0.02"></circle><circle cx="18" cy="54" r="15" fill="none" stroke="#ddd" opacity="0.07200000000000001" stroke-width="6px"></circle><circle cx="18" cy="54" r="7.5" fill="#222" fill-opacity="0.028666666666666667"></circle><circle cx="54" cy="54" r="15" fill="none" stroke="#222" opacity="0.046" stroke-width="6px"></circle><circle cx="54" cy="54" r="7.5" fill="#222" fill-opacity="0.13266666666666665"></circle><circle cx="90" cy="54" r="15" fill="none" stroke="#222" opacity="0.11533333333333334" stroke-width="6px"></circle><circle cx="90" cy="54" r="7.5" fill="#ddd" fill-opacity="0.07200000000000001"></circle><circle cx="126" cy="54" r="15" fill="none" stroke="#222" opacity="0.06333333333333334" stroke-width="6px"></circle><circle cx="126" cy="54" r="7.5" fill="#ddd" fill-opacity="0.02"></circle><circle cx="162" cy="54" r="15" fill="none" stroke="#ddd" opacity="0.10666666666666667" stroke-width="6px"></circle><circle cx="162" cy="54" r="7.5" fill="#222" fill-opacity="0.06333333333333334"></circle><circle cx="198" cy="54" r="15" fill="none" stroke="#222" opacity="0.06333333333333334" stroke-width="6px"></circle><circle cx="198" cy="54" r="7.5" fill="#ddd" fill-opacity="0.14133333333333334"></circle><circle cx="18" cy="90" r="15" fill="none" stroke="#222" opacity="0.028666666666666667" stroke-width="6px"></circle><circle cx="18" cy="90" r="7.5" fill="#ddd" fill-opacity="0.03733333333333333"></circle><circle cx="54" cy="90" r="15" fill="none" stroke="#222" opacity="0.13266666666666665" stroke-width="6px"></circle><circle cx="54" cy="90" r="7.5" fill="#222" fill-opacity="0.06333333333333334"></circle><circle cx="90" cy="90" r="15" fill="none" stroke="#222" opacity="0.028666666666666667" stroke-width="6px"></circle><circle cx="90" cy="90" r="7.5" fill="#ddd" fill-opacity="0.14133333333333334"></circle><circle cx="126" cy="90" r="15" fill="none" stroke="#222" opacity="0.06333333333333334" stroke-width="6px"></circle><circle cx="126" cy="90" r="7.5" fill="#222" fill-opacity="0.028666666666666667"></circle><circle cx="162" cy="90" r="15" fill="none" stroke="#222" opacity="0.06333333333333334" stroke-width="6px"></circle><circle cx="162" cy="90" r="7.5" fill="#222" fill-opacity="0.098"></circle><circle cx="198" cy="90" r="15" fill="none" stroke="#222" opacity="0.13266666666666665" stroke-width="6px"></circle><circle cx="198" cy="90" r="7.5" fill="#ddd" fill-opacity="0.02"></circle><circle cx="18" cy="126" r="15" fill="none" stroke="#ddd" opacity="0.07200000000000001" stroke-width="6px"></circle><circle cx="18" cy="126" r="7.5" fill="#ddd" fill-opacity="0.12400000000000001"></circle><circle cx="54" cy="126" r="15" fill="none" stroke="#222" opacity="0.098" stroke-width="6px"></circle><circle cx="54" cy="126" r="7.5" fill="#ddd" fill-opacity="0.10666666666666667"></circle><circle cx="90" cy="126" r="15" fill="none" stroke="#ddd" opacity="0.10666666666666667" stroke-width="6px"></circle><circle cx="90" cy="126" r="7.5" fill="#222" fill-opacity="0.098"></circle><circle cx="126" cy="126" r="15" fill="none" stroke="#ddd" opacity="0.12400000000000001" stroke-width="6px"></circle><circle cx="126" cy="126" r="7.5" fill="#ddd" fill-opacity="0.07200000000000001"></circle><circle cx="162" cy="126" r="15" fill="none" stroke="#ddd" opacity="0.02" stroke-width="6px"></circle><circle cx="162" cy="126" r="7.5" fill="#222" fill-opacity="0.13266666666666665"></circle><circle cx="198" cy="126" r="15" fill="none" stroke="#222" opacity="0.098" stroke-width="6px"></circle><circle cx="198" cy="126" r="7.5" fill="#222" fill-opacity="0.06333333333333334"></circle><circle cx="18" cy="162" r="15" fill="none" stroke="#222" opacity="0.028666666666666667" stroke-width="6px"></circle><circle cx="18" cy="162" r="7.5" fill="#222" fill-opacity="0.06333333333333334"></circle><circle cx="54" cy="162" r="15" fill="none" stroke="#ddd" opacity="0.14133333333333334" stroke-width="6px"></circle><circle cx="54" cy="162" r="7.5" fill="#222" fill-opacity="0.028666666666666667"></circle><circle cx="90" cy="162" r="15" fill="none" stroke="#222" opacity="0.06333333333333334" stroke-width="6px"></circle><circle cx="90" cy="162" r="7.5" fill="#222" fill-opacity="0.13266666666666665"></circle><circle cx="126" cy="162" r="15" fill="none" stroke="#ddd" opacity="0.03733333333333333" stroke-width="6px"></circle><circle cx="126" cy="162" r="7.5" fill="#222" fill-opacity="0.028666666666666667"></circle><circle cx="162" cy="162" r="15" fill="none" stroke="#ddd" opacity="0.14133333333333334" stroke-width="6px"></circle><circle cx="162" cy="162" r="7.5" fill="#222" fill-opacity="0.06333333333333334"></circle><circle cx="198" cy="162" r="15" fill="none" stroke="#222" opacity="0.06333333333333334" stroke-width="6px"></circle><circle cx="198" cy="162" r="7.5" fill="#ddd" fill-opacity="0.10666666666666667"></circle><circle cx="18" cy="198" r="15" fill="none" stroke="#ddd" opacity="0.02" stroke-width="6px"></circle><circle cx="18" cy="198" r="7.5" fill="#222" fill-opacity="0.06333333333333334"></circle><circle cx="54" cy="198" r="15" fill="none" stroke="#ddd" opacity="0.07200000000000001" stroke-width="6px"></circle><circle cx="54" cy="198" r="7.5" fill="#222" fill-opacity="0.11533333333333334"></circle><circle cx="90" cy="198" r="15" fill="none" stroke="#222" opacity="0.13266666666666665" stroke-width="6px"></circle><circle cx="90" cy="198" r="7.5" fill="#222" fill-opacity="0.046"></circle><circle cx="126" cy="198" r="15" fill="none" stroke="#222" opacity="0.028666666666666667" stroke-width="6px"></circle><circle cx="126" cy="198" r="7.5" fill="#ddd" fill-opacity="0.07200000000000001"></circle><circle cx="162" cy="198" r="15" fill="none" stroke="#ddd" opacity="0.02" stroke-width="6px"></circle><circle cx="162" cy="198" r="7.5" fill="#222" fill-opacity="0.098"></circle><circle cx="198" cy="198" r="15" fill="none" stroke="#222" opacity="0.06333333333333334" stroke-width="6px"></circle><circle cx="198" cy="198" r="7.5" fill="#222" fill-opacity="0.11533333333333334"></circle></svg>