<svg xmlns="http://www.w3.org/2000/svg" width="152" height="152"><rect x="0" y="0" width="100%" height="100%" fill="rgb(147,60,122)"></rect><g fill="#ddd" opacity="0.08933333333333333" transform="translate(-25.461,-25.461) rotate(45,25.461,25.461)"><rect x="18" y="0" width="18" height="54"></rect><rect x="0" y="18" width="54" height="18"></rect></g><g fill="#ddd" opacity="0.08933333333333333" transform="translate(127.30499999999999,-25.461) rotate(45,25.461,25.461)"><rect x="18" y="0" width="18" height="54"></rect><rect x="0" y="18" width="54" height="18"></rect></g><g fill="#ddd" opacity="0.08933333333333333" transform="translate(-25.461,127.30499999999998) rotate(45,25.461,25.461)"><rect x="18" y="0" width="18" height="54"></rect><rect x="0" y="18" width="54" height="18"></rect></g><g fill="#ddd" opacity="0.08933333333333333" transform="translate(127.30499999999999,127.30499999999998) rotate(45,25.461,25.461)"><rect x="18" y="0" width="18" height="54"></rect><rect x="0" y="18" width="54" height="18"></rect></g><g fill="#222" opacity="0.08066666666666666" transform="translate(0,-12.7305) rotate(45,25.461,25.461)"><rect x="18" y="0" width="18" height="54"></rect><rect x="0" y="18" width="54" height="18"></rect></g><g fill="#222" opacity="0.08066666666666666" transform="translate(0,140.03549999999998) rotate(45,25.461,25.461)"><rect x="18" y="0" width="18" height="54"></rect><rect x="0" y="18" width="54" height="18"></rect></g><g fill="#222" opacity="0.08066666666666666" transform="translate(25.461,-25.461) rotate(45,25.461,25.461)"><rect x="18" y="0" width="18" height="54"></rect><rect x="0" y="18" width="54" height="18"></rect></g><g fill="#222" opacity="0.08066666666666666" transform="translate(25.461,127.30499999999998) rotate(45,25.461,25.461)"><rect x="18" y="0" width="18" height="54"></rect><rect x="0" y="18" width="54" height="18"></rect></g><g fill="#ddd" opacity="0.02" transform="translate(50.922,-12.7305) rotate(45,25.461,25.461)"><rect x="18" y="0" width="18" height="54"></rect><rect x="0" y="18" width="54" height="18"></rect></g><g fill="#ddd" opacity="0.02" transform="translate(50.922,140.03549999999998) rotate(45,25.461,25.461)"><rect x="18" y="0" width="18" height="54"></rect><rect x="0" y="18" width="54" height="18"></rect></g><g fill="#ddd" opacity="0.07200000000000001" transform="translate(76.383,-25.461) rotate(45,25.461,25.461)"><rect x="18" y="0" width="18" height="54"></rect><rect x="0" y="18" width="54" height="18"></rect></g><g fill="#ddd" opacity="0.07200000000000001" transform="translate(76.383,127.30499999999998) rotate(45,25.461,25.461)"><rect x="18" y="0" width="18" height="54"></rect><rect x="0" y="18" width="54" height="18"></rect></g><g fill="#222" opacity="0.028666666666666667" transform="translate(101.844,-12.7305) rotate(45,25.461,25.461)"><rect x="18" y="0" width="18" height="54"></rect><rect x="0" y="18" width="54" height="18"></rect></g><g fill="#222" opacity="0.028666666666666667" transform="translate(101.844,140.03549999999998) rotate(45,25.461,25.461)"><rect x="18" y="0" width="18" height="54"></rect><rect x="0" y="18" width="54" height="18"></rect></g><g fill="#ddd" opacity="0.02" transform="translate(-25.461,0) rotate(45,25.461,25.461)"><rect x="18" y="0" width="18" height="54"></rect><rect x="0" y="18" width="54" height="18"></rect></g><g fill="#ddd" opacity="0.02" transform="translate(127.30499999999999,0) rotate(45,25.461,25.461)"><rect x="18" y="0" width="18" height="54"></rect><rect x="0" y="18" width="54" height="18"></rect></g><g fill="#ddd" opacity="0.07200000000000001" transform="translate(0,12.7305) rotate(45,25.461,25.461)"><rect x="18" y="0" width="18" height="54"></rect><rect x="0" y="18" width="54" height="18"></rect></g><g fill="#222" opacity="0.06333333333333334" transform="translate(25.461,0) rotate(45,25.461,25.461)"><rect x="18" y="0" width="18" height="54"></rect><rect x="0" y="18" width="54" height="18"></rect></g><g fill="#ddd" opacity="0.03733333333333333" transform="translate(50.922,12.7305) rotate(45,25.461,25.461)"><rect x="18" y="0" width="18" height="54"></rect><rect x="0" y="18" width="54" height="18"></rect></g><g fill="#ddd" opacity="0.05466666666666667" transform="translate(76.383,0) rotate(45,25.461,25.461)"><rect x="18" y="0" width="18" height="54"></rect><rect x="0" y="18" width="54" height="18"></rect></g><g fill="#ddd" opacity="0.10666666666666667" transform="translate(101.844,12.7305) rotate(45,25.461,25.461)"><rect x="18" y="0" width="18" height="54"></rect><rect x="0" y="18" width="54" height="18"></rect></g><g fill="#222" opacity="0.098" transform="translate(-25.461,25.461) rotate(45,25.461,25.461)"><rect x="18" y="0" width="18" height="54"></rect><rect x="0" y="18" width="54" height="18"></rect></g><g fill="#222" opacity="0.098" transform="translate(127.30499999999999,25.461) rotate(45,25.461,25.461)"><rect x="18" y="0" width="18" height="54"></rect><rect x="0" y="18" width="54" height="18"></rect></g><g fill="#222" opacity="0.06333333333333334" transform="translate(0,38.19149999999999) rotate(45,25.461,25.461)"><rect x="18" y="0" width="18" height="54"></rect><rect x="0" y="18" width="54" height="18"></rect></g><g fill="#222" opacity="0.028666666666666667" transform="translate(25.461,25.461) rotate(45,25.461,25.461)"><rect x="18" y="0" width="18" height="54"></rect><rect x="0" y="18" width="54" height="18"></rect></g><g fill="#ddd" opacity="0.14133333333333334" transform="translate(50.922,38.19149999999999) rotate(45,25.461,25.461)"><rect x="18" y="0" width="18" height="54"></rect><rect x="0" y="18" width="54" height="18"></rect></g><g fill="#222" opacity="0.11533333333333334" transform="translate(76.383,25.461) rotate(45,25.461,25.461)"><rect x="18" y="0" width="18" height="54"></rect><rect x="0" y="18" width="54" height="18"></rect></g><g fill="#ddd" opacity="0.02" transform="translate(101.844,38.19149999999999) rotate(45,25.461,25.461)"><rect x="18" y="0" width="18" height="54"></rect><rect x="0" y="18" width="54" height="18"></rect></g><g fill="#ddd" opacity="0.03733333333333333" transform="translate(-25.461,50.922) rotate(45,25.461,25.461)"><rect x="18" y="0" width="18" height="54"></rect><rect x="0" y="18" width="54" height="18"></rect></g><g fill="#ddd" opacity="0.03733333333333333" transform="translate(127.30499999999999,50.922) rotate(45,25.461,25.461)"><rect x="18" y="0" width="18" height="54"></rect><rect x="0" y="18" width="54" height="18"></rect></g><g fill="#222" opacity="0.15" transform="translate(0,63.65249999999999) rotate(45,25.461,25.461)"><rect x="18" y="0" width="18" height="54"></rect><rect x="0" y="18" width="54" height="18"></rect></g><g fill="#222" opacity="0.046" transform="translate(25.461,50.922) rotate(45,25.461,25.461)"><rect x="18" y="0" width="18" height="54"></rect><rect x="0" y="18" width="54" height="18"></rect></g><g fill="#ddd" opacity="0.08933333333333333" transform="translate(50.922,63.65249999999999) rotate(45,25.461,25.461)"><rect x="18" y="0" width="18" height="54"></rect><rect x="0" y="18" width="54" height="18"></rect></g><g fill="#222" opacity="0.11533333333333334" transform="translate(76.383,50.922) rotate(45,25.461,25.461)"><rect x="18" y="0" width="18" height="54"></rect><rect x="0" y="18" width="54" height="18"></rect></g><g fill="#222" opacity="0.15" transform="translate(101.844,63.65249999999999) rotate(45,25.461,25.461)"><rect x="18" y="0" width="18" height="54"></rect><rect x="0" y="18" width="54" height="18"></rect></g><g fill="#222" opacity="0.098" transform="translate(-25.461,76.38299999999998) rotate(45,25.461,25.461)"><rect x="18" y="0" width="18" height="54"></rect><rect x="0" y="18" width="54" height="18"></rect></g><g fill="#222" opacity="0.098" transform="translate(127.30499999999999,76.38299999999998) rotate(45,25.461,25.461)"><rect x="18" y="0" width="18" height="54"></rect><rect x="0" y="18" width="54" height="18"></rect></g><g fill="#ddd" opacity="0.08933333333333333" transform="translate(0,89.11349999999999) rotate(45,25.461,25.461)"><rect x="18" y="0" width="18" height="54"></rect><rect x="0" y="18" width="54" height="18"></rect></g><g fill="#222" opacity="0.06333333333333334" transform="translate(25.461,76.38299999999998) rotate(45,25.461,25.461)"><rect x="18" y="0" width="18" height="54"></rect><rect x="0" y="18" width="54" height="18"></rect></g><g fill="#222" opacity="0.06333333333333334" transform="translate(50.922,89.11349999999999) rotate(45,25.461,25.461)"><rect x="18" y="0" width="18" height="54"></rect><rect x="0" y="18" width="54" height="18"></rect></g><g fill="#ddd" opacity="0.10666666666666667" transform="translate(76.383,76.38299999999998) rotate(45,25.461,25.461)"><rect x="18" y="0" width="18" height="54"></rect><rect x="0" y="18" width="54" height="18"></rect></g><g fill="#ddd" opacity="0.14133333333333334" transform="translate(101.844,89.11349999999999) rotate(45,25.461,25.461)"><rect x="18" y="0" width="18" height="54"></rect><rect x="0" y="18" width="54" height="18"></rect></g><g fill="#222" opacity="0.028666666666666667" transform="translate(-25.461,101.84400000000001) rotate(45,25.461,25.461)"><rect x="18" y="0" width="18" height="54"></rect><rect x="0" y="18" width="54" height="18"></rect></g><g fill="#222" opacity="0.028666666666666667" transform="translate(127.30499999999999,101.84400000000001) rotate(45,25.461,25.461)"><rect x="18" y="0" width="18" height="54"></rect><rect x="0" y="18" width="54" height="18"></rect></g><g fill="#222" opacity="0.028666666666666667" transform="translate(-25.461,-50.92199999999997) rotate(45,25.461,25.461)"><rect x="18" y="0" width="18" height="54"></rect><rect x="0" y="18" width="54" height="18"></rect></g><g fill="#ddd" opacity="0.12400000000000001" transform="translate(0,114.57450000000001) rotate(45,25.461,25.461)"><rect x="18" y="0" width="18" height="54"></rect><rect x="0" y="18" width="54" height="18"></rect></g><g fill="#ddd" opacity="0.12400000000000001" transform="translate(0,-38.19149999999996) rotate(45,25.461,25.461)"><rect x="18" y="0" width="18" height="54"></rect><rect x="0" y="18" width="54" height="18"></rect></g><g fill="#222" opacity="0.11533333333333334" transform="translate(25.461,101.84400000000001) rotate(45,25.461,25.461)"><rect x="18" y="0" width="18" height="54"></rect><rect x="0" y="18" width="54" height="18"></rect></g><g fill="#222" opacity="0.11533333333333334" transform="translate(25.461,-50.92199999999997) rotate(45,25.461,25.461)"><rect x="18" y="0" width="18" height="54"></rect><rect x="0" y="18" width="54" height="18"></rect></g><g fill="#ddd" opacity="0.02" transform="translate(50.922,114.57450000000001) rotate(45,25.461,25.461)"><rect x="18" y="0" width="18" height="54"></rect><rect x="0" y="18" width="54" height="18"></rect></g><g fill="#ddd" opacity="0.02" transform="translate(50.922,-38.19149999999996) rotate(45,25.461,25.461)"><rect x="18" y="0" width="18" height="54"></rect><rect x="0" y="18" width="54" height="18"></rect></g><g fill="#ddd" opacity="0.03733333333333333" transform="translate(76.383,101.84400000000001) rotate(45,25.461,25.461)"><rect x="18" y="0" width="18" height="54"></rect><rect x="0" y="18" width="54" height="18"></rect></g><g fill="#ddd" opacity="0.03733333333333333" transform="translate(76.383,-50.92199999999997) rotate(45,25.461,25.461)"><rect x="18" y="0" width="18" height="54"></rect><rect x="0" y="18" width="54" height="18"></rect></g><g fill="#222" opacity="0.046" transform="translate(101.844,114.57450000000001) rotate(45,25.461,25.461)"><rect x="18" y="0" width="18" height="54"></rect><rect x="0" y="18" width="54" height="18"></rect></g><g fill="#222" opacity="0.046" transform="translate(101.844,-38.19149999999996) rotate(45,25.461,25.461)"><rect x="18" y="0" width="18" height="54"></rect><rect x="0" y="18" width="54" height="18"></rect></g></svg>