<svg xmlns="http://www.w3.org/2000/svg" width="89" height="103"><rect x="0" y="0" width="100%" height="100%" fill="rgb(58,149,138)"></rect><rect x="-9.5" y="-9.5" width="19" height="19" stroke="#000" stroke-opacity="0.02" fill="#ddd" fill-opacity="0.07200000000000001" stroke-width="1"></rect><rect x="80.40896534380866" y="-9.5" width="19" height="19" stroke="#000" stroke-opacity="0.02" fill="#ddd" fill-opacity="0.07200000000000001" stroke-width="1"></rect><rect x="-9.5" y="94.31793068761733" width="19" height="19" stroke="#000" stroke-opacity="0.02" fill="#ddd" fill-opacity="0.07200000000000001" stroke-width="1"></rect><rect x="80.40896534380866" y="94.31793068761733" width="19" height="19" stroke="#000" stroke-opacity="0.02" fill="#ddd" fill-opacity="0.07200000000000001" stroke-width="1"></rect><rect x="35.45448267190433" y="16.454482671904334" width="19" height="19" stroke="#000" stroke-opacity="0.02" fill="#222" fill-opacity="0.11533333333333334" stroke-width="1"></rect><rect x="-9.5" y="42.40896534380867" width="19" height="19" stroke="#000" stroke-opacity="0.02" fill="#ddd" fill-opacity="0.08933333333333333" stroke-width="1"></rect><rect x="80.40896534380866" y="42.40896534380867" width="19" height="19" stroke="#000" stroke-opacity="0.02" fill="#ddd" fill-opacity="0.08933333333333333" stroke-width="1"></rect><rect x="35.45448267190433" y="68.363448015713" width="19" height="19" stroke="#000" stroke-opacity="0.02" fill="#222" fill-opacity="0.028666666666666667" stroke-width="1"></rect><polyline points="0,0,16.454482671904334,9.5,0,19,0,0" stroke="#000" stroke-opacity="0.02" fill="#ddd" fill-opacity="0.02" stroke-width="1" transform="translate(9.5,-9.5) rotate(0,9.5,8.227241335952167)"></polyline><polyline points="0,0,16.454482671904334,9.5,0,19,0,0" stroke="#000" stroke-opacity="0.02" fill="#ddd" fill-opacity="0.02" stroke-width="1" transform="translate(9.5,113.31793068761733) rotate(0,9.5,8.227241335952167) scale(1,-1)"></polyline><polyline points="0,0,16.454482671904334,9.5,0,19,0,0" stroke="#000" stroke-opacity="0.02" fill="#ddd" fill-opacity="0.12400000000000001" stroke-width="1" transform="translate(80.40896534380866,-9.5) rotate(0,9.5,8.227241335952167) scale(-1,1)"></polyline><polyline points="0,0,16.454482671904334,9.5,0,19,0,0" stroke="#000" stroke-opacity="0.02" fill="#ddd" fill-opacity="0.12400000000000001" stroke-width="1" transform="translate(80.40896534380866,113.31793068761733) rotate(0,9.5,8.227241335952167) scale(-1,-1)"></polyline><polyline points="0,0,16.454482671904334,9.5,0,19,0,0" stroke="#000" stroke-opacity="0.02" fill="#222" fill-opacity="0.098" stroke-width="1" transform="translate(54.45448267190433,16.454482671904334)"></polyline><polyline points="0,0,16.454482671904334,9.5,0,19,0,0" stroke="#000" stroke-opacity="0.02" fill="#ddd" fill-opacity="0.02" stroke-width="1" transform="translate(35.45448267190433,16.454482671904334) scale(-1,1)"></polyline><polyline points="0,0,16.454482671904334,9.5,0,19,0,0" stroke="#000" stroke-opacity="0.02" fill="#ddd" fill-opacity="0.10666666666666667" stroke-width="1" transform="translate(54.45448267190433,87.363448015713) scale(1,-1)"></polyline><polyline points="0,0,16.454482671904334,9.5,0,19,0,0" stroke="#000" stroke-opacity="0.02" fill="#ddd" fill-opacity="0.10666666666666667" stroke-width="1" transform="translate(35.45448267190433,87.363448015713) scale(-1,-1)"></polyline><polyline points="0,0,16.454482671904334,9.5,0,19,0,0" stroke="#000" stroke-opacity="0.02" fill="#222" fill-opacity="0.098" stroke-width="1" transform="translate(9.5,42.40896534380867)"></polyline><polyline points="0,0,16.454482671904334,9.5,0,19,0,0" stroke="#000" stroke-opacity="0.02" fill="#ddd" fill-opacity="0.10666666666666667" stroke-width="1" transform="translate(80.40896534380866,42.40896534380867) scale(-1,1)"></polyline><rect x="0" y="0" width="19" height="19" stroke="#000" stroke-opacity="0.02" fill="#222" fill-opacity="0.098" stroke-width="1" transform="translate(9.5,9.5) rotate(-30,0,0)"></rect><rect x="0" y="0" width="19" height="19" stroke="#000" stroke-opacity="0.02" fill="#222" fill-opacity="0.098" stroke-width="1" transform="scale(-1,1) translate(-80.40896534380866,9.5) rotate(-30,0,0)"></rect><rect x="0" y="0" width="19" height="19" stroke="#000" stroke-opacity="0.02" fill="#ddd" fill-opacity="0.08933333333333333" stroke-width="1" transform="translate(9.5,23.408965343808667) rotate(30,0,19)"></rect><rect x="0" y="0" width="19" height="19" stroke="#000" stroke-opacity="0.02" fill="#222" fill-opacity="0.06333333333333334" stroke-width="1" transform="scale(-1,1) translate(-80.40896534380866,23.408965343808667) rotate(30,0,19)"></rect><rect x="0" y="0" width="19" height="19" stroke="#000" stroke-opacity="0.02" fill="#ddd" fill-opacity="0.08933333333333333" stroke-width="1" transform="scale(1,-1) translate(9.5,-80.40896534380866) rotate(30,0,19)"></rect><rect x="0" y="0" width="19" height="19" stroke="#000" stroke-opacity="0.02" fill="#ddd" fill-opacity="0.03733333333333333" stroke-width="1" transform="scale(-1,-1) translate(-80.40896534380866,-80.40896534380866) rotate(30,0,19)"></rect><rect x="0" y="0" width="19" height="19" stroke="#000" stroke-opacity="0.02" fill="#222" fill-opacity="0.046" stroke-width="1" transform="scale(1,-1) translate(9.5,-94.31793068761733) rotate(-30,0,0)"></rect><rect x="0" y="0" width="19" height="19" stroke="#000" stroke-opacity="0.02" fill="#ddd" fill-opacity="0.02" stroke-width="1" transform="scale(-1,-1) translate(-80.40896534380866,-94.31793068761733) rotate(-30,0,0)"></rect></svg>