<?xml version="1.0" standalone="no"?><!DOCTYPE svg PUBLIC "-//W3C//DTD SVG 1.1//EN" "http://www.w3.org/Graphics/SVG/1.1/DTD/svg11.dtd"><svg t="1553954155304" class="icon" style="" viewBox="0 0 1024 1024" version="1.1" xmlns="http://www.w3.org/2000/svg" p-id="28691" xmlns:xlink="http://www.w3.org/1999/xlink" width="200" height="200"><defs><style type="text/css"></style></defs><path d="M515.723 632c-9.707 28.533-14.973 59.12-14.973 90.938 0 82.891 35.74 157.435 92.652 209.062H32V819.5C32 715.947 115.947 632 219.5 632h296.223zM392 92c132.548 0 240 107.452 240 240S524.548 572 392 572 152 464.548 152 332 259.452 92 392 92zM686.849 607.1a150.058 150.058 0 0 1 28.925-16.8l2.97-47.096A7.685 7.685 0 0 1 726.41 536h99.12a7.684 7.684 0 0 1 7.667 7.204l2.96 46.927a150.04 150.04 0 0 1 29.042 16.771l42.084-20.895a7.68 7.68 0 0 1 10.068 3.043l49.56 85.9a7.69 7.69 0 0 1-2.401 10.247L925.46 711.17c0.621 5.588 0.932 11.206 0.93 16.829 0 5.732-0.32 11.389-0.944 16.954l39.123 26.022a7.69 7.69 0 0 1 2.4 10.247l-49.56 85.9a7.68 7.68 0 0 1-10.067 3.043l-42.259-20.982a150.038 150.038 0 0 1-28.925 16.685l-2.96 46.927a7.685 7.685 0 0 1-7.667 7.204h-99.12a7.684 7.684 0 0 1-7.667-7.204l-2.97-47.096a150.055 150.055 0 0 1-28.808-16.713l-42.308 21.006a7.68 7.68 0 0 1-10.068-3.043l-49.56-85.9a7.69 7.69 0 0 1 2.401-10.247l39.4-26.206a152.104 152.104 0 0 1-0.905-16.597c0-5.566 0.302-11.062 0.891-16.471l-39.328-26.16a7.692 7.692 0 0 1-2.401-10.246l49.56-85.9a7.68 7.68 0 0 1 10.068-3.043l42.133 20.92zM776 789.732c34.173 0 61.876-27.722 61.876-61.92 0-34.196-27.703-61.918-61.876-61.918s-61.876 27.722-61.876 61.919c0 34.197 27.703 61.919 61.876 61.919z" p-id="28692"></path></svg>
