<?xml version="1.0" standalone="no"?><!DOCTYPE svg PUBLIC "-//W3C//DTD SVG 1.1//EN" "http://www.w3.org/Graphics/SVG/1.1/DTD/svg11.dtd"><svg t="1553244934266" class="icon" style="" viewBox="0 0 1024 1024" version="1.1" xmlns="http://www.w3.org/2000/svg" p-id="10497" xmlns:xlink="http://www.w3.org/1999/xlink" width="200" height="200"><defs><style type="text/css"></style></defs><path d="M104.96 351.418l384.815 212.48c16.407 9.193 27.81 13.15 38.632 13.15 11.986 0 23.273-4.772 39.913-13.15l384.815-212.48c7.796-4.189 14.08-10.589 18.152-18.502 7.797-15.36 8.262-33.512 1.048-49.221-4.073-8.96-11.288-16.175-20.015-20.597L568.436 62.138c-19.665-10.705-29.44-15.942-39.214-15.942s-19.666 5.237-39.215 15.942l-384.349 200.96c-8.727 4.538-15.825 11.753-20.014 20.597-7.099 15.476-6.866 33.861 1.047 49.221 4.073 7.913 10.589 14.313 18.269 18.502z m420.538-220.276l0.582-0.35 0.582-0.348c0.93-0.466 1.745-0.931 2.676-1.397 0.931 0.466 1.746 0.931 2.677 1.397l0.581 0.349 0.582 0.349 338.153 176.873-338.27 186.763c-1.396 0.815-2.792 1.397-3.84 1.862-0.581-0.35-1.046-0.582-1.745-0.93h-0.232L187.345 308.13l338.153-176.988z m389.353 364.334l-364.218 200.96c-6.4 3.259-17.338 8.495-21.877 8.844-1.861 0-6.981-0.93-20.363-8.378l-83.782-46.197c-18.618-10.24-42.24-3.374-52.247 15.36-10.24 18.735-3.375 42.473 15.36 52.713l83.665 46.08c16.175 8.96 35.375 18.037 57.367 18.037h2.793c19.666-0.815 36.19-8.262 54.11-17.222l0.814-0.35L952.087 563.55c18.618-10.24 25.6-33.978 15.36-52.713-10.356-18.734-33.978-25.6-52.596-15.36z m0 194.211l-364.218 200.96c-6.4 3.258-17.338 8.495-21.877 8.844-1.861 0.116-6.981-0.931-20.363-8.378l-83.782-46.197c-18.618-10.356-42.24-3.374-52.247 15.36-10.24 18.735-3.375 42.473 15.36 52.713l83.665 46.08c16.175 8.96 35.375 18.036 57.367 18.036h2.793c19.666-0.814 36.19-8.261 54.11-17.221l0.814-0.35L952.087 757.76c18.618-10.24 25.6-33.978 15.36-52.713-10.356-18.85-33.978-25.832-52.596-15.36zM301.265 639.07h-69.469v-69.934c0-21.411-17.338-38.982-38.632-38.982s-38.633 17.57-38.633 38.982v69.934H85.178c-21.178 0-38.633 17.571-38.633 38.982s17.339 38.982 38.633 38.982h69.586v69.934c0 21.411 17.338 38.982 38.632 38.982s38.633-17.57 38.633-38.982v-69.934h69.47c21.294 0 38.632-17.571 38.632-38.982-0.233-21.411-17.571-38.982-38.866-38.982z" p-id="10498"></path></svg>