<?xml version="1.0" standalone="no"?><!DOCTYPE svg PUBLIC "-//W3C//DTD SVG 1.1//EN" "http://www.w3.org/Graphics/SVG/1.1/DTD/svg11.dtd"><svg t="1553244761461" class="icon" style="" viewBox="0 0 1024 1024" version="1.1" xmlns="http://www.w3.org/2000/svg" p-id="5722" xmlns:xlink="http://www.w3.org/1999/xlink" width="200" height="200"><defs><style type="text/css"></style></defs><path d="M383.8976 358.4h256c14.0288 0 25.6-11.5712 25.6-25.6 0-14.1312-11.5712-25.6-25.6-25.6h-256c-14.0288 0-25.6 11.4688-25.6 25.6 0 14.0288 11.4688 25.6 25.6 25.6zM383.8976 512h153.6c14.0288 0 25.6-11.5712 25.6-25.6 0-14.1312-11.5712-25.6-25.6-25.6h-153.6c-14.0288 0-25.6 11.4688-25.6 25.6 0 14.0288 11.4688 25.6 25.6 25.6zM793.4976 665.6h-128V537.6c0-14.1312-11.5712-25.6-25.6-25.6s-25.6 11.4688-25.6 25.6v128h-128c-14.0288 0-25.6 11.4688-25.6 25.6 0 14.0288 11.5712 25.6 25.6 25.6h128v128c0 14.0288 11.5712 25.6 25.6 25.6s25.6-11.5712 25.6-25.6V716.8h128c14.0288 0 25.6-11.5712 25.6-25.6 0-14.1312-11.5712-25.6-25.6-25.6z" p-id="5723"></path><path d="M818.8928 255.8976c0-56.2176-45.9776-102.2976-102.4-102.2976H307.0976c-56.2176 0-102.2976 46.08-102.2976 102.2976V768c0 56.2176 46.08 102.4 102.2976 102.4h76.8c14.1312 0 25.6-11.4688 25.6-25.6s-11.4688-25.6-25.6-25.6h-76.8c-13.6192 0-26.4192-5.3248-36.0448-15.0528-9.8304-9.728-15.0528-22.528-15.0528-36.1472V255.8976c0-13.5168 5.3248-26.3168 15.0528-36.1472 9.728-9.728 22.528-14.9504 36.0448-14.9504h409.3952c13.6192 0 26.4192 5.3248 36.1472 14.9504 9.728 9.8304 15.0528 22.6304 15.0528 36.1472l0.1024 179.2c0 14.0288 11.5712 25.6 25.6 25.6s25.6-11.5712 25.6-25.6l-0.1024-179.2z" p-id="5724"></path></svg>