<?xml version="1.0" standalone="no"?><!DOCTYPE svg PUBLIC "-//W3C//DTD SVG 1.1//EN" "http://www.w3.org/Graphics/SVG/1.1/DTD/svg11.dtd"><svg t="1554193915969" class="icon" style="" viewBox="0 0 1024 1024" version="1.1" xmlns="http://www.w3.org/2000/svg" p-id="4359" xmlns:xlink="http://www.w3.org/1999/xlink" width="200" height="200"><defs><style type="text/css"></style></defs><path d="M874.6 716.8c-26.4-18.2-43.5-48.3-43.5-82.4V435.1c0-146-107.7-267.9-251.6-297.9V130c0-37.2-30.7-67.2-68.5-67.2s-68.5 30.1-68.5 67.2v7.1c-143.9 30-251.6 151.8-251.6 297.9v199.3c0 32-15.1 60.3-38.6 78.8-2.8 2.2-3.9 3-11.4 8.4-11.3 8.1-18.5 21.2-18.5 36.1 0 24.8 20.4 44.8 45.7 44.8h685.8c25.3 0 45.7-20 45.7-44.8 0.1-15.8-8.3-29.8-21.1-37.8-2.1-1.1-2.6-2.1-3.9-3zM511.2 959.6c63.2 0 114.4-50.2 114.4-112.1H396.8c0 61.8 51.1 112.1 114.4 112.1z" p-id="4360"></path></svg>
