<?xml version="1.0" standalone="no"?><!DOCTYPE svg PUBLIC "-//W3C//DTD SVG 1.1//EN" "http://www.w3.org/Graphics/SVG/1.1/DTD/svg11.dtd"><svg t="1551612095716" class="icon" style="" viewBox="0 0 1024 1024" version="1.1" xmlns="http://www.w3.org/2000/svg" p-id="20727" xmlns:xlink="http://www.w3.org/1999/xlink" width="200" height="200"><defs><style type="text/css"></style></defs><path d="M824.8 844.7H199.3C141.7 844.7 95 798 95 740.4v-417c0-57.6 46.7-104.3 104.3-104.3h93.3c11.7 0 21.9-8 24.7-19.3l7.4-30.1c7.7-31.3 45.1-54.8 84.1-54.8h211.5c38.9 0 76.3 23.5 84.1 54.8l7.4 30.1c2.8 11.4 13 19.3 24.7 19.3h88.3c57.6 0 104.3 46.7 104.3 104.3v417c-0.1 57.6-46.8 104.3-104.3 104.3z" fill="#37AFFA" p-id="20728"></path><path d="M95 673.1v67.3c0 57.6 46.7 104.3 104.3 104.3H219C164.6 799 121.6 740.2 95 673.1zM929 740.4v-417c0-57.6-46.7-104.3-104.3-104.3h-12.1c72 77.2 116 180.7 116 294.6 0 132.8-60 251.7-154.3 330.9h50.4c57.6 0.1 104.3-46.6 104.3-104.2zM95 323.4v31c19.7-49.6 48.3-94.7 83.8-133.2C131 230.7 95 272.8 95 323.4z" fill="#37AFFA" p-id="20729"></path><path d="M928.6 513.8c0-113.9-44-217.4-116-294.6h-76.1c-2.3 0-4.6-0.3-6.8-0.9C804.3 286.4 851 384.5 851 493.4c0 161.9-103.3 299.8-247.5 351.2h170.8c94.4-79.2 154.3-198 154.3-330.8zM105.5 493.4c0-108.5 46.4-206.2 120.3-274.3h-26.5c-7 0-13.8 0.7-20.4 2-35.5 38.6-64.1 83.7-83.8 133.2V673c26.6 67.1 69.6 125.9 124 171.6h134c-144.4-51.4-247.6-189.2-247.6-351.2zM713.3 204.1c-0.6-1.3-1.1-2.7-1.4-4.2l-7.4-30.1c-7.7-31.3-45.1-54.8-84.1-54.8H408.8c-29.9 0-58.8 13.9-74.2 34.4 44.2-18.5 92.7-28.7 143.7-28.7 89 0 170.8 31.2 235 83.4z" fill="#41B6FB" p-id="20730"></path><path d="M851 493.4c0-109-46.8-207.1-121.3-275.2-7.3-2-13.3-7.2-16.4-14.2-64.1-52.1-145.9-83.4-235-83.4-50.9 0-99.5 10.2-143.7 28.7-4.7 6.2-8.1 13.1-9.9 20.4l-5.7 23.2c42.4-21.3 90.2-33.4 140.9-33.4 173.2 0 313.6 140.4 313.6 313.6S633.1 786.7 459.9 786.7 146.3 646.3 146.3 473.1c0-104.5 51.1-197 129.6-254h-50.1c-74 68.1-120.3 165.8-120.3 274.3 0 161.9 103.3 299.8 247.5 351.2h250.5C747.8 793.2 851 655.4 851 493.4z" fill="#4CBCFC" p-id="20731"></path><path d="M146.3 473.1c0 173.2 140.4 313.6 313.6 313.6s313.6-140.4 313.6-313.6-140.4-313.6-313.6-313.6c-50.7 0-98.5 12-140.9 33.4l-1.7 6.9c-2.8 11.4-13 19.3-24.7 19.3h-16.7c-78.5 57.1-129.6 149.6-129.6 254z m295.2-274.7c140.5 0 254.4 113.9 254.4 254.4S582 707.2 441.5 707.2 187.1 593.3 187.1 452.8 301 198.4 441.5 198.4z" fill="#56C3FD" p-id="20732"></path><path d="M441.5 707.2c140.5 0 254.4-113.9 254.4-254.4S582 198.4 441.5 198.4 187.1 312.3 187.1 452.8 301 707.2 441.5 707.2z m-18.4-469.9c107.8 0 195.2 87.4 195.2 195.2s-87.4 195.2-195.2 195.2-195.2-87.4-195.2-195.2 87.4-195.2 195.2-195.2z" fill="#60C9FD" p-id="20733"></path><path d="M423.1 627.7c107.8 0 195.2-87.4 195.2-195.2s-87.4-195.2-195.2-195.2-195.2 87.4-195.2 195.2 87.4 195.2 195.2 195.2z m-18.4-351.5c75.1 0 136 60.9 136 136s-60.9 136-136 136-136-60.9-136-136 60.9-136 136-136z" fill="#6BCFFE" p-id="20734"></path><path d="M404.7 412.2m-136 0a136 136 0 1 0 272 0 136 136 0 1 0-272 0Z" fill="#75D6FF" p-id="20735"></path><path d="M620.3 132.9c31.1 0 61 18.4 66.6 41.1l7.4 30.1c4.8 19.4 22.1 33 42.2 33h88.3c47.6 0 86.3 38.7 86.3 86.3v417c0 47.6-38.7 86.3-86.3 86.3H199.2c-47.6 0-86.3-38.7-86.3-86.3v-417c0-47.6 38.7-86.3 86.3-86.3h93.3c20 0 37.4-13.6 42.2-33l7.4-30.1c5.6-22.7 35.5-41.1 66.6-41.1h211.6m0-18H408.8c-38.9 0-76.3 23.5-84.1 54.8l-7.4 30.1c-2.8 11.4-13 19.3-24.7 19.3h-93.3C141.7 219.2 95 265.8 95 323.4v417c0 57.6 46.7 104.3 104.3 104.3h625.5c57.6 0 104.3-46.7 104.3-104.3v-417c0-57.6-46.7-104.3-104.3-104.3h-88.3c-11.7 0-21.9-8-24.7-19.3l-7.4-30.1c-7.8-31.2-45.2-54.8-84.1-54.8z" fill="#37AFFA" p-id="20736"></path><path d="M511.4 343.5c-105.6 0-191.1 85.6-191.1 191.1 0 105.6 85.6 191.1 191.1 191.1 105.6 0 191.1-85.6 191.1-191.1S617 343.5 511.4 343.5z m278-34.7h-34.8c-19.2 0-34.8 15.6-34.8 34.8 0 19.2 15.6 34.8 34.8 34.8h34.8c19.2 0 34.8-15.6 34.8-34.8 0-19.3-15.6-34.8-34.8-34.8z" fill="#B9E8FF" p-id="20737"></path><path d="M157.4 374.3c-9.9 0-18-8.1-18-18V340c0-42.4 34.5-76.9 76.9-76.9h38.6c9.9 0 18 8.1 18 18s-8.1 18-18 18h-38.6c-22.5 0-40.9 18.3-40.9 40.9v16.3c0 9.9-8 18-18 18zM157.4 443.9c-9.9 0-18-8.1-18-18v-10.5c0-9.9 8.1-18 18-18s18 8.1 18 18v10.5c0 9.9-8 18-18 18z" fill="#FFFFFF" p-id="20738"></path></svg>