<?xml version="1.0" standalone="no"?><!DOCTYPE svg PUBLIC "-//W3C//DTD SVG 1.1//EN" "http://www.w3.org/Graphics/SVG/1.1/DTD/svg11.dtd"><svg t="1551606686182" class="icon" style="" viewBox="0 0 1024 1024" version="1.1" xmlns="http://www.w3.org/2000/svg" p-id="4281" xmlns:xlink="http://www.w3.org/1999/xlink" width="200" height="200"><defs><style type="text/css"></style></defs><path d="M755.1729 804.313338H309.295695c-52.031052 0-94.667608-42.636556-94.667607-94.667608V395.291461c0-52.031052 42.636556-94.667608 94.667607-94.667608h7.949189l2.16796-6.503881c8.671842-28.90614 35.410021-49.863091 65.761468-49.863091h127.187015c31.0741 0 57.812279 20.234298 65.761468 49.863091l2.16796 6.503881h174.882145c52.031052 0 94.667608 42.636556 94.667608 95.390261v313.631616c0 52.753705-42.636556 94.667608-94.667608 94.667608zM309.295695 322.303458c-40.468596 0-72.988003 32.519407-72.988003 72.988003v314.354269c0 40.468596 32.519407 72.988003 72.988003 72.988003h445.877205c40.468596 0 72.988003-32.519407 72.988003-72.988003V396.014114c0-40.468596-32.519407-73.710656-72.988003-73.710656H572.341567c-5.058574 0-8.671842-2.890614-10.117149-7.949188l-4.335921-14.45307c-5.781228-20.234298-23.847565-33.964714-45.52717-33.964714H385.174312c-20.956951 0-39.023289 13.730416-45.52717 33.964714l-4.335921 14.45307c-1.445307 4.335921-5.781228 7.949188-10.117149 7.949188h-15.898377z" fill="#0077F9" p-id="4282"></path><path d="M474.060692 724.44507167c-83.827805 0-152.479887-68.652082-152.479887-152.479887S390.232886 419.48529767 474.060692 419.48529767c83.827805 0 152.479887 68.652082 152.479887 152.479887s-68.652082 152.479887-152.479887 152.479887z m0-283.280169c-72.265349 0-130.800282 58.534933-130.800283 130.800282s58.534933 130.800282 130.800283 130.800282c72.265349 0 130.800282-58.534933 130.800282-130.800282S546.326041 441.16490267 474.060692 441.16490267z" fill="#0077F9" p-id="4283"></path><path d="M474.060692 571.96518467m-93.944955 0a93.944954 93.944954 0 1 0 187.889909 0 93.944954 93.944954 0 1 0-187.889909 0Z" fill="#99FFFF" p-id="4284"></path><path d="M742.887791 460.330275c-26.015526 0-46.972477-20.956951-46.972477-46.972477s20.956951-46.972477 46.972477-46.972477 46.972477 20.956951 46.972477 46.972477-20.956951 46.972477-46.972477 46.972477z m0-72.265349c-13.730416 0-25.292872 11.562456-25.292872 25.292872s11.562456 25.292872 25.292872 25.292872 25.292872-11.562456 25.292872-25.292872-11.562456-25.292872-25.292872-25.292872z" fill="#0077F9" p-id="4285"></path></svg>