<?xml version="1.0" standalone="no"?><!DOCTYPE svg PUBLIC "-//W3C//DTD SVG 1.1//EN" "http://www.w3.org/Graphics/SVG/1.1/DTD/svg11.dtd"><svg t="1551353601335" class="icon" style="" viewBox="0 0 1024 1024" version="1.1" xmlns="http://www.w3.org/2000/svg" p-id="24713" xmlns:xlink="http://www.w3.org/1999/xlink" width="200" height="200"><defs><style type="text/css"></style></defs><path d="M887.7 380.2L693 331.4c-3.6-0.9-6.7-3.2-8.7-6.3l-106.5-170c-4.6-7.3-10.8-13.5-18.1-18.1-26.8-16.8-62.2-8.7-79 18.1L374 325.2c-2 3.1-5.1 5.4-8.7 6.3l-194.7 48.8c-8.4 2.1-16.2 6.1-22.9 11.7-24.3 20.3-27.5 56.5-7.2 80.8l33.6 40.2 42.6 3.8c201.6 18 379.4 143.6 464 327.9l18.9 41.1 21 8.4c8 3.2 16.7 4.6 25.4 4 31.6-2.2 55.4-29.5 53.3-61.1l-13.8-200.2c-0.3-3.7 0.9-7.3 3.3-10.2l128.8-153.9c5.6-6.6 9.5-14.5 11.7-22.9 7.7-30.9-10.9-62-41.6-69.7z" p-id="24714"></path><path d="M213.1 559.2l56.4 67.4c2.4 2.8 3.6 6.5 3.3 10.2L259 836.9c-0.6 8.6 0.8 17.3 4 25.4 9 22.3 30.5 35.9 53.2 35.9 7.1 0 14.4-1.3 21.4-4.2l186.2-75c1.7-0.7 3.5-1 5.4-1 1.8 0 3.6 0.3 5.4 1l107.5 43.3c-76.6-166.6-238-286.1-429-303.1z" p-id="24715"></path></svg>