<?xml version="1.0" standalone="no"?><!DOCTYPE svg PUBLIC "-//W3C//DTD SVG 1.1//EN" "http://www.w3.org/Graphics/SVG/1.1/DTD/svg11.dtd"><svg t="1553584977797" class="icon" style="" viewBox="0 0 1024 1024" version="1.1" xmlns="http://www.w3.org/2000/svg" p-id="8123" xmlns:xlink="http://www.w3.org/1999/xlink" width="200" height="200"><defs><style type="text/css"></style></defs><path d="M731.008 196.992q-11.008 0-18.496-7.488t-12.512-17.504-7.488-20.512-2.496-16.512l0-124 2.016 0q8.992 0 16.992 2.496t19.488 9.504 28 20.512 41.504 35.488q27.008 24 43.008 40.992t24.512 28 10.496 19.008 2.016 14.016l0 16-147.008 0zM748 790.016q-36 7.008-64 19.008-24 11.008-43.008 30.016t-16 48q2.016 20 3.008 35.488t2.016 28.512l-374.016 0q-19.008 0-41.504-11.008t-42.016-28.992-32.512-41.504-12.992-47.488l0-682.016q0-20.992 9.504-44t26.016-41.504 37.504-31.008 44-12.512l383.008 0 0 124.992q0 20 6.016 41.504t19.008 40.512 32.992 31.008 47.008 12l146.016 0 0 299.008-40.992 64.992-88-103.008q-16.992 19.008-28.992 38.016-11.008 16.992-20 36.512t-11.008 39.488l-375.008 0q-26.016 0-44 18.496t-18.016 44.512 18.016 44 44 18.016l375.008 0q23.008 0 38.016-12 4.992 8.992 8.512 16.992t6.496 12.992q4 6.016 6.016 11.008zM314.016 386.016q-26.016 0-44 18.496t-18.016 44.512 18.016 44 44 18.016l375.008 0q26.016 0 44.512-18.016t18.496-44-18.496-44.512-44.512-18.496l-375.008 0zM934.016 872.992q6.016 3.008 18.016 7.008t23.488 11.488 20 20.992 7.488 35.488q-0.992 27.008-16 42.496t-35.008 20-40.512-2.016-31.488-24.512q-14.016-23.008-12.512-45.504t5.504-47.488q2.016-14.016-0.512-20t-5.504-11.008q-2.016-2.016-5.504-6.496t-6.496-9.504q-4-4.992-8-11.008-3.008 4.992-7.008 8.992-3.008 4-6.496 8.992t-6.496 10.016q-7.008 8.992-7.488 15.008t1.504 14.016q0.992 4 2.496 15.008t0.992 24.992-4.992 29.504-15.488 29.504q-15.008 18.016-35.008 22.016t-38.496-2.496-31.488-22.016-12.992-37.504q-0.992-20.992 7.008-35.008t20-23.008 24.992-14.496 22.016-8.512q18.016-7.008 24.992-12.512t12.992-13.504q3.008-4 7.488-10.496t9.504-12.512q4.992-7.008 10.016-15.008-4-4-8-10.016-4-4.992-9.504-12t-11.488-16q-7.008-8-14.016-19.488t-12.992-23.008-10.496-20.992-5.504-14.496q-4-10.016-6.016-26.016t6.016-20.992 11.008-0.512 8.992 12.512q2.016 4 14.016 22.496t26.016 38.496q16 24.992 34.016 54.016 15.008-24 27.008-44.992 11.008-18.016 20.992-35.008t14.016-23.008q7.008-12 11.488-18.496t6.496-8.512 6.496-0.512 7.488 6.496q2.016 4.992 1.504 13.504t-2.496 25.504q-2.016 8-6.496 18.016t-9.504 20-10.016 19.008-8 12.992q-3.008 4.992-9.504 12.992t-12.512 16q-7.008 10.016-15.008 20 4.992 8 8.992 14.016t7.488 11.488 5.504 8.512q6.016 11.008 18.496 20.992t24.512 16zM756.992 970.016q14.016 0 23.488-9.504t9.504-23.488-9.504-23.488-23.488-9.504-23.488 9.504-9.504 23.488 9.504 23.488 23.488 9.504zM936 983.008q15.008 0 25.504-10.496t10.496-25.504-10.496-25.504-25.504-10.496-25.504 10.496-10.496 25.504 10.496 25.504 25.504 10.496z" p-id="8124"></path></svg>