<?xml version="1.0" standalone="no"?><!DOCTYPE svg PUBLIC "-//W3C//DTD SVG 1.1//EN" "http://www.w3.org/Graphics/SVG/1.1/DTD/svg11.dtd"><svg t="1554190107416" class="icon" style="" viewBox="0 0 1024 1024" version="1.1" xmlns="http://www.w3.org/2000/svg" p-id="3610" xmlns:xlink="http://www.w3.org/1999/xlink" width="200" height="200"><defs><style type="text/css"></style></defs><path d="M77.00000029 64.49999961C72.00000019 64.49999961 69.49999971 67.0000001 67.0000001 69.49999971 64.49999961 72.00000019 62 74.4999998 62 79.4999999v320.0000001c0 2.49999961 0 5.0000001 2.49999961 5.0000001h5.0000001l107.4999999-107.4999999 145.0000002 145.00000019c2.49999961 2.49999961 7.49999971 5.0000001 10.00000019 4.99999922 5.0000001 0 7.49999971-2.49999961 10.00000019-4.99999922l97.49999971-97.50000058c2.49999961-2.49999961 5.0000001-7.49999971 5.0000001-10.0000002 0-5.0000001-2.49999961-7.49999971-5.0000001-9.99999932l-140.0000001-150.00000029L404.5000001 69.49999971c2.49999961-2.49999961 2.49999961-2.49999961 0-5.0000001 0-2.49999961-2.49999961-2.49999961-2.50000049-2.49999961L77.00000029 64.49999961zM77.00000029 962c-5.0000001 0-7.49999971-2.49999961-10.00000019-5.0000001-2.49999961-2.49999961-5.0000001-7.49999971-5.0000001-10.00000019V624.5c0-2.49999961 0-5.0000001 2.49999961-5.0000001h5.0000001l107.4999999 107.4999999 145.00000019-145.00000019c2.49999961-2.49999961 7.49999971-5.0000001 10.0000002-4.99999922 5.0000001 0 7.49999971 2.49999961 10.00000019 4.99999922l97.49999971 97.50000058c2.49999961 2.49999961 5.0000001 7.49999971 5.0000001 10.0000002s-2.49999961 7.49999971-5.0000001 9.99999932l-145.00000019 145.00000019 105.00000029 105.0000003c2.49999961 2.49999961 2.49999961 2.49999961 0 5.00000009 0 2.49999961-2.49999961 2.49999961-5.0000001 2.49999961L77.00000029 962zM946.99999971 64.49999961c5.0000001 0 7.49999971 2.49999961 10.00000019 5.0000001 2.49999961 2.49999961 5.0000001 5.0000001 5.0000001 10.00000019v320.0000001c0 2.49999961 0 5.0000001-2.49999961 5.0000001h-5.0000001l-107.4999999-107.4999999-145.00000019 145.00000019c-2.49999961 2.49999961-7.49999971 5.0000001-10.0000002 4.99999922-5.0000001 0-7.49999971-2.49999961-10.00000019-4.99999922l-97.49999971-97.50000058c-2.49999961-2.49999961-5.0000001-7.49999971-5.0000001-10.0000002 0-5.0000001 2.49999961-7.49999971 5.0000001-9.99999932l145.00000019-145.00000019L624.5 74.4999998c-2.49999961-2.49999961-2.49999961-2.49999961 0-5.00000009-5.0000001-7.49999971-2.49999961-7.49999971-2.49999961-7.49999971l324.99999932 2.49999961z m0 897.50000039c5.0000001 0 7.49999971-2.49999961 10.00000019-5.0000001 2.49999961-2.49999961 5.0000001-7.49999971 5.0000001-10.00000019V624.5c0-2.49999961 0-5.0000001-2.49999961-5.0000001h-5.0000001l-107.4999999 107.4999999-145.00000019-145.00000019c-2.49999961-2.49999961-7.49999971-5.0000001-10.0000002-4.99999922-5.0000001 0-7.49999971 2.49999961-10.00000019 4.99999922l-97.49999971 97.50000058c-2.49999961 2.49999961-5.0000001 7.49999971-5.0000001 10.0000002s2.49999961 7.49999971 5.0000001 9.99999932l145.00000019 145.00000019-105.00000029 105.0000003c-2.49999961 2.49999961-2.49999961 2.49999961 0 5.00000009 0 2.49999961 2.49999961 2.49999961 5.0000001 2.49999961l317.49999961 5.0000001z" p-id="3611"></path></svg>
