<?xml version="1.0" standalone="no"?><!DOCTYPE svg PUBLIC "-//W3C//DTD SVG 1.1//EN" "http://www.w3.org/Graphics/SVG/1.1/DTD/svg11.dtd"><svg t="1551348914651" class="icon" style="" viewBox="0 0 1024 1024" version="1.1" xmlns="http://www.w3.org/2000/svg" p-id="835" xmlns:xlink="http://www.w3.org/1999/xlink" width="200" height="200"><defs><style type="text/css"></style></defs><path d="M888.832 590.08h-31.232a30.0544 30.0544 0 0 1-29.2864-29.2864c0-15.616-642.4064 29.2864-658.0224 29.2864h-39.0144c-33.2288 0-60.5696-19.456-74.24-48.7936-11.6736-31.232-5.8368-64.4096 17.6128-87.8592l378.7776-378.7776c31.232-31.232 82.0224-31.232 113.2544 0l378.7776 378.7776c23.4496 23.4496 29.2864 56.6272 17.5616 87.8592-13.6704 29.2864-40.96 48.7936-74.1888 48.7936zM381.184 972.8H246.4768a108.3392 108.3392 0 0 1-107.4176-107.3664v-292.864c0-15.6672 13.6704-29.3376 29.2864-29.3376 10.4448 0 81.408 123.648 212.8384 370.9952 15.616 0 29.2864 13.6704 29.2864 29.2864a30.0544 30.0544 0 0 1-29.2864 29.2864z m243.3536-10.5984a30.72 30.72 0 0 1-7.1168 0.8192 30.0544 30.0544 0 0 1-29.2864-29.2864v-283.136h-156.16v283.136a30.0544 30.0544 0 0 1-29.3376 29.2864 28.7744 28.7744 0 0 1-29.2864-29.2864l-205.0048-356.8128c0-27.4944 538.0096-50.3296 666.8288-32.768a28.5696 28.5696 0 0 1 16.5888-5.4272c15.616 0 29.2864 13.6704 29.2864 29.2864v297.4208A107.0592 107.0592 0 0 1 773.632 972.8h-126.9248a29.4912 29.4912 0 0 1-22.1696-10.5984z" p-id="836"></path></svg>