<?xml version="1.0" standalone="no"?><!DOCTYPE svg PUBLIC "-//W3C//DTD SVG 1.1//EN" "http://www.w3.org/Graphics/SVG/1.1/DTD/svg11.dtd"><svg t="1552317429411" class="icon" style="" viewBox="0 0 1024 1024" version="1.1" xmlns="http://www.w3.org/2000/svg" p-id="16624" xmlns:xlink="http://www.w3.org/1999/xlink" width="200" height="200"><defs><style type="text/css"></style></defs><path d="M751.616 497.664l-365.568-324.608c-22.016-19.456-56.832-4.096-56.832 25.6v176.128h-231.424c-15.872 0-29.184 12.8-29.184 29.184v238.592c0 15.872 12.8 29.184 29.184 29.184h231.424v176.128c0 29.184 34.816 45.056 56.832 25.6l365.568-324.608c15.36-13.824 15.36-37.888 0-51.2z" fill="" p-id="16625"></path><path d="M778.24 904.192h-189.44c-25.6 0-46.08-20.48-46.08-46.08s20.48-46.08 46.08-46.08h189.44c46.592 0 84.48-37.888 84.48-84.48v-409.088c0-46.592-37.888-84.48-84.48-84.48h-189.44c-25.6 0-46.08-20.48-46.08-46.08s20.48-46.08 46.08-46.08h189.44c97.28 0 176.64 79.36 176.64 176.64V727.552c0 97.28-79.36 176.64-176.64 176.64z" fill="" p-id="16626"></path></svg>