<?xml version="1.0" standalone="no"?><!DOCTYPE svg PUBLIC "-//W3C//DTD SVG 1.1//EN" "http://www.w3.org/Graphics/SVG/1.1/DTD/svg11.dtd"><svg t="1552317439001" class="icon" style="" viewBox="0 0 1026 1024" version="1.1" xmlns="http://www.w3.org/2000/svg" p-id="17360" xmlns:xlink="http://www.w3.org/1999/xlink" width="200.390625" height="200"><defs><style type="text/css"></style></defs><path d="M418.96448 868.10624c0-24.21248-25.52832-20.95104-41.89696-20.95104H188.53888c-57.6 0-104.73472-47.1296-104.73472-104.73984v-460.8512c0-57.60512 47.13472-104.73472 104.73472-104.73472h209.47456c29.4656 0 20.95104-44.50816 20.95104-62.83776 0-11.12576-9.81504-20.94592-20.95104-20.94592H188.53888c-104.08448 0-188.52864 84.44416-188.52864 188.52352v460.85632c0 104.07936 84.44416 188.52864 188.52864 188.52864h209.47456c29.4656 0 20.95104-44.5184 20.95104-62.848z m607.48288-356.11136c0-11.12576-4.58752-21.60128-12.4416-29.46048l-356.11136-356.11136c-7.8592-7.85408-18.3296-12.43648-29.46048-12.43648-22.91712 0-41.90208 18.98496-41.90208 41.89696v188.52864H293.28384c-22.91712 0-41.90208 18.98496-41.90208 41.89696v251.38688c0 22.90688 18.98496 41.88672 41.90208 41.88672h293.25824v188.53376c0 22.912 18.98496 41.89696 41.89696 41.89696 11.13088 0 21.61152-4.58752 29.46048-12.44672l356.11136-356.11136c7.84896-7.84896 12.43648-18.32448 12.43648-29.46048z" fill="" p-id="17361"></path></svg>