<?xml version="1.0" standalone="no"?><!DOCTYPE svg PUBLIC "-//W3C//DTD SVG 1.1//EN" "http://www.w3.org/Graphics/SVG/1.1/DTD/svg11.dtd"><svg t="1551194867383" class="icon" style="" viewBox="0 0 1024 1024" version="1.1" xmlns="http://www.w3.org/2000/svg" p-id="1090" xmlns:xlink="http://www.w3.org/1999/xlink" width="200" height="200"><defs><style type="text/css"></style></defs><path d="M285.774058 5.248527h452.453931c76.508358 0 139.100803 62.600632 139.100803 139.107967v735.287012c0 76.513475-62.592445 139.106943-139.100803 139.106944h-452.453931c-76.506312 0-139.103873-62.593468-139.103874-139.106944V144.356494c0.001023-76.506312 62.597562-139.107967 139.103874-139.107967z m226.230035 817.666067c-32.470464 0-58.804173 26.324499-58.804173 58.798033 0 32.475581 26.332686 58.80008 58.804173 58.80008 32.466371 0 58.799057-26.324499 58.799057-58.80008 0-32.473534-26.332686-58.798033-58.799057-58.798033zM268.097502 147.262677c-35.972211 0-65.402438 29.425111-65.402439 65.397322v498.510805c0 35.971188 29.430227 65.405508 65.402439 65.405508h487.80602c35.972211 0 65.405508-29.434321 65.405508-65.405508V212.659999c0-35.972211-29.433297-65.397322-65.405508-65.397322H268.097502z" p-id="1091"></path></svg>
