<?xml version="1.0" standalone="no"?><!DOCTYPE svg PUBLIC "-//W3C//DTD SVG 1.1//EN" "http://www.w3.org/Graphics/SVG/1.1/DTD/svg11.dtd"><svg t="1552031369586" class="icon" style="" viewBox="0 0 1024 1024" version="1.1" xmlns="http://www.w3.org/2000/svg" p-id="6772" xmlns:xlink="http://www.w3.org/1999/xlink" width="200" height="200"><defs><style type="text/css"></style></defs><path d="M899.365408 793.936207c-28.886048-34.669614-100.604331-119.526257-169.854299-198.363813 32.896549-46.840818 54.222101-102.524025 59.593655-163.332972C805.562249 245.044995 664.801737 79.84142 474.751663 63.116503 284.667819 46.39261 117.269555 184.54304 100.854028 371.72621c-16.516839 187.122795 124.210926 352.384699 314.306027 369.052311 57.055751 4.978385 112.083227-3.919263 161.579506-23.976064 56.919646 70.746274 136.775594 172.36058 166.004463 207.516264C828.940637 1027.869121 985.562021 897.646244 899.365408 793.936207zM710.999765 425.330058c-12.724311 144.746662-142.144078 251.593132-289.073332 238.705614-146.952791-12.910031-255.761304-140.731208-243.0022-285.512662 12.69054-144.697543 142.133845-251.590062 289.071286-238.702544C614.937053 152.753009 723.703609 280.58749 710.999765 425.330058z" p-id="6773"></path></svg>