<?xml version="1.0" standalone="no"?><!DOCTYPE svg PUBLIC "-//W3C//DTD SVG 1.1//EN" "http://www.w3.org/Graphics/SVG/1.1/DTD/svg11.dtd"><svg t="1552098547223" class="icon" style="" viewBox="0 0 1024 1024" version="1.1" xmlns="http://www.w3.org/2000/svg" p-id="2214" xmlns:xlink="http://www.w3.org/1999/xlink" width="200" height="200"><defs><style type="text/css"></style></defs><path d="M192 960h704a64 64 0 0 0 64-64V128a64 64 0 0 0-64-64H256a64 64 0 0 0-64 64v832zM256 0h640a128 128 0 0 1 128 128v768a128 128 0 0 1-128 128H128V128a128 128 0 0 1 128-128z"  p-id="2215"></path><path d="M352 256v64h448V256h-448z m0-64h448a64 64 0 0 1 64 64v64a64 64 0 0 1-64 64h-448a64 64 0 0 1-64-64V256a64 64 0 0 1 64-64zM128 960V576a64 64 0 0 0-64 64v256a64 64 0 0 0 64 64z m0-448h64v512H128a128 128 0 0 1-128-128v-256a128 128 0 0 1 128-128zM320 576a32 32 0 0 1 0-64h512a32 32 0 1 1 0 64H320zM320 768a32 32 0 1 1 0-64h512a32 32 0 1 1 0 64H320z" p-id="2216"></path></svg>
