<?xml version="1.0" standalone="no"?><!DOCTYPE svg PUBLIC "-//W3C//DTD SVG 1.1//EN" "http://www.w3.org/Graphics/SVG/1.1/DTD/svg11.dtd"><svg t="1552030925200" class="icon" style="" viewBox="0 0 1024 1024" version="1.1" xmlns="http://www.w3.org/2000/svg" p-id="5943" xmlns:xlink="http://www.w3.org/1999/xlink" width="200" height="200"><defs><style type="text/css"></style></defs><path d="M868.847849 461.029118c0 177.22947-134.214794 326.877769-308.185035 350.078167l2.316765 108.726284 152.934135 0c26.883277 0 50.977022 24.593118 50.977022 50.977022 0 26.38595-17.150612 50.977022-44.033889 50.977022L511.999488 1021.787612 301.14213 1021.787612c-26.883277 0-44.033889-24.591071-44.033889-50.977022 0-26.383904 24.094768-50.977022 50.978045-50.977022l152.934135 0 2.315742-108.726284c-173.968194-23.200398-308.185035-172.848697-308.185035-350.078167 0-0.100284 0 3.385097 0 3.284813 0-0.050142 0-0.050142 0-0.100284 0-26.435069 15.631002-54.16462 50.978045-54.16462 39.503712 0 50.977022 24.593118 50.977022 50.978045l0 0c0.074701 140.737348 111.589494 254.842129 254.890224 254.891248 143.301753-0.050142 254.81757-114.154923 254.891248-254.891248l0 0c0-26.384927 24.095791-50.978045 50.979068-50.978045 26.882254 0 50.977022 27.728528 50.977022 54.16462 0 0.050142 0 0.050142 0 0.100284C868.847849 464.413192 868.847849 460.928834 868.847849 461.029118zM511.999488 639.451764 511.999488 639.451764c-107.507526 0-178.423669-72.832795-178.423669-178.422645L333.57582 180.648336c0-105.57757 70.917166-178.435948 178.423669-178.435948l0 0c107.509573 0 178.423669 72.858378 178.423669 178.435948l0 280.380782C690.423157 566.618968 619.507014 639.451764 511.999488 639.451764z" p-id="5944"></path></svg>