<?xml version="1.0" standalone="no"?><!DOCTYPE svg PUBLIC "-//W3C//DTD SVG 1.1//EN" "http://www.w3.org/Graphics/SVG/1.1/DTD/svg11.dtd"><svg t="1551353521361" class="icon" style="" viewBox="0 0 1024 1024" version="1.1" xmlns="http://www.w3.org/2000/svg" p-id="20001" xmlns:xlink="http://www.w3.org/1999/xlink" width="200" height="200"><defs><style type="text/css"></style></defs><path d="M868.792255 374.98775l-162.413684 0 44.002167-191.322283c0-56.958182-46.487481-103.335938-103.445464-103.335938-57.012945 0-103.500427 46.377756-103.500427 103.335938 0 0-35.526913 194.111592-166.378995 194.995193 0 0-69.530059 3.209624-69.530059 85.409692l0 295.20625c0 48.78992 39.744653 88.534374 88.534574 88.534374l384.142751 0c59.370147 0 80.750051-66.441952 90.01457-95.167676l85.793432-280.021146c0.877005-2.850667 1.315708-5.865823 1.315708-8.826016C957.326629 414.951655 917.581975 374.98775 868.792255 374.98775z" p-id="20002"></path><path d="M188.344622 389.032364l-19.931958 0c-37.563524 0-68.01507 25.973558-68.01507 58.014298l0 335.249437c0 32.04074 30.451546 58.014298 68.01507 58.014298l19.931958 0c37.563524 0 68.01507-25.973558 68.01507-58.014298L256.359692 447.046662C256.359692 415.005922 225.908146 389.032364 188.344622 389.032364zM175.338401 792.057417c-18.587334 0-33.656541-15.068184-33.656541-33.656541s15.068184-33.656541 33.656541-33.656541c18.587334 0 33.656541 15.068184 33.656541 33.656541S193.926758 792.057417 175.338401 792.057417z" p-id="20003"></path></svg>